0
SECTION
2
HEADER
9
$INSUNITS
70
4
0
ENDSEC
0
SECTION
2
TABLES
0
TABLE
2
LAYER
0
LAYER
2
VAEGGE
70
0
62
7
0
LAYER
2
INVENTAR
70
0
62
3
0
LAYER
2
TEKST
70
0
62
5
0
LAYER
2
MAAL
70
0
62
1
0
LAYER
2
KOEL
70
0
62
4
0
ENDTAB
0
ENDSEC
0
SECTION
2
BLOCKS
0
BLOCK
2
REOL
10
0
20
0
70
0
0
LWPOLYLINE
8
INVENTAR
90
4
70
1
10
0
20
0
10
1000
20
0
10
1000
20
600
10
0
20
600
0
ENDBLK
0
ENDSEC
0
SECTION
2
ENTITIES
0
INSERT
8
INVENTAR
2
REOL
10
3000
20
2500
50
0
0
INSERT
8
INVENTAR
2
REOL
10
4000
20
2500
50
0
0
INSERT
8
INVENTAR
2
REOL
10
5000
20
2500
50
0
0
INSERT
8
INVENTAR
2
REOL
10
6000
20
2500
50
0
0
INSERT
8
INVENTAR
2
REOL
10
7000
20
2500
50
0
0
INSERT
8
INVENTAR
2
REOL
10
8000
20
2500
50
0
0
INSERT
8
INVENTAR
2
REOL
10
9000
20
2500
50
0
0
INSERT
8
INVENTAR
2
REOL
10
10000
20
2500
50
0
0
INSERT
8
INVENTAR
2
REOL
10
11000
20
2500
50
0
0
INSERT
8
INVENTAR
2
REOL
10
12000
20
2500
50
0
0
INSERT
8
INVENTAR
2
REOL
10
13000
20
2500
50
0
0
INSERT
8
INVENTAR
2
REOL
10
14000
20
2500
50
0
0
INSERT
8
INVENTAR
2
REOL
10
15000
20
2500
50
0
0
INSERT
8
INVENTAR
2
REOL
10
16000
20
2500
50
0
0
INSERT
8
INVENTAR
2
REOL
10
20000
20
2500
50
0
0
INSERT
8
INVENTAR
2
REOL
10
21000
20
2500
50
0
0
INSERT
8
INVENTAR
2
REOL
10
22000
20
2500
50
0
0
INSERT
8
INVENTAR
2
REOL
10
23000
20
2500
50
0
0
INSERT
8
INVENTAR
2
REOL
10
24000
20
2500
50
0
0
INSERT
8
INVENTAR
2
REOL
10
25000
20
2500
50
0
0
INSERT
8
INVENTAR
2
REOL
10
26000
20
2500
50
0
0
INSERT
8
INVENTAR
2
REOL
10
27000
20
2500
50
0
0
INSERT
8
INVENTAR
2
REOL
10
28000
20
2500
50
0
0
INSERT
8
INVENTAR
2
REOL
10
29000
20
2500
50
0
0
INSERT
8
INVENTAR
2
REOL
10
30000
20
2500
50
0
0
INSERT
8
INVENTAR
2
REOL
10
31000
20
2500
50
0
0
INSERT
8
INVENTAR
2
REOL
10
32000
20
2500
50
0
0
INSERT
8
INVENTAR
2
REOL
10
33000
20
2500
50
0
0
INSERT
8
INVENTAR
2
REOL
10
3000
20
5100
50
0
0
INSERT
8
INVENTAR
2
REOL
10
4000
20
5100
50
0
0
INSERT
8
INVENTAR
2
REOL
10
5000
20
5100
50
0
0
INSERT
8
INVENTAR
2
REOL
10
6000
20
5100
50
0
0
INSERT
8
INVENTAR
2
REOL
10
7000
20
5100
50
0
0
INSERT
8
INVENTAR
2
REOL
10
8000
20
5100
50
0
0
INSERT
8
INVENTAR
2
REOL
10
9000
20
5100
50
0
0
INSERT
8
INVENTAR
2
REOL
10
10000
20
5100
50
0
0
INSERT
8
INVENTAR
2
REOL
10
11000
20
5100
50
0
0
INSERT
8
INVENTAR
2
REOL
10
12000
20
5100
50
0
0
INSERT
8
INVENTAR
2
REOL
10
13000
20
5100
50
0
0
INSERT
8
INVENTAR
2
REOL
10
14000
20
5100
50
0
0
INSERT
8
INVENTAR
2
REOL
10
15000
20
5100
50
0
0
INSERT
8
INVENTAR
2
REOL
10
16000
20
5100
50
0
0
INSERT
8
INVENTAR
2
REOL
10
20000
20
5100
50
0
0
INSERT
8
INVENTAR
2
REOL
10
21000
20
5100
50
0
0
INSERT
8
INVENTAR
2
REOL
10
22000
20
5100
50
0
0
INSERT
8
INVENTAR
2
REOL
10
23000
20
5100
50
0
0
INSERT
8
INVENTAR
2
REOL
10
24000
20
5100
50
0
0
INSERT
8
INVENTAR
2
REOL
10
25000
20
5100
50
0
0
INSERT
8
INVENTAR
2
REOL
10
26000
20
5100
50
0
0
INSERT
8
INVENTAR
2
REOL
10
27000
20
5100
50
0
0
INSERT
8
INVENTAR
2
REOL
10
28000
20
5100
50
0
0
INSERT
8
INVENTAR
2
REOL
10
29000
20
5100
50
0
0
INSERT
8
INVENTAR
2
REOL
10
30000
20
5100
50
0
0
INSERT
8
INVENTAR
2
REOL
10
31000
20
5100
50
0
0
INSERT
8
INVENTAR
2
REOL
10
32000
20
5100
50
0
0
INSERT
8
INVENTAR
2
REOL
10
33000
20
5100
50
0
0
INSERT
8
INVENTAR
2
REOL
10
3000
20
7700
50
0
0
INSERT
8
INVENTAR
2
REOL
10
4000
20
7700
50
0
0
INSERT
8
INVENTAR
2
REOL
10
5000
20
7700
50
0
0
INSERT
8
INVENTAR
2
REOL
10
6000
20
7700
50
0
0
INSERT
8
INVENTAR
2
REOL
10
7000
20
7700
50
0
0
INSERT
8
INVENTAR
2
REOL
10
8000
20
7700
50
0
0
INSERT
8
INVENTAR
2
REOL
10
9000
20
7700
50
0
0
INSERT
8
INVENTAR
2
REOL
10
10000
20
7700
50
0
0
INSERT
8
INVENTAR
2
REOL
10
11000
20
7700
50
0
0
INSERT
8
INVENTAR
2
REOL
10
12000
20
7700
50
0
0
INSERT
8
INVENTAR
2
REOL
10
13000
20
7700
50
0
0
INSERT
8
INVENTAR
2
REOL
10
14000
20
7700
50
0
0
INSERT
8
INVENTAR
2
REOL
10
15000
20
7700
50
0
0
INSERT
8
INVENTAR
2
REOL
10
16000
20
7700
50
0
0
INSERT
8
INVENTAR
2
REOL
10
20000
20
7700
50
0
0
INSERT
8
INVENTAR
2
REOL
10
21000
20
7700
50
0
0
INSERT
8
INVENTAR
2
REOL
10
22000
20
7700
50
0
0
INSERT
8
INVENTAR
2
REOL
10
23000
20
7700
50
0
0
INSERT
8
INVENTAR
2
REOL
10
24000
20
7700
50
0
0
INSERT
8
INVENTAR
2
REOL
10
25000
20
7700
50
0
0
INSERT
8
INVENTAR
2
REOL
10
26000
20
7700
50
0
0
INSERT
8
INVENTAR
2
REOL
10
27000
20
7700
50
0
0
INSERT
8
INVENTAR
2
REOL
10
28000
20
7700
50
0
0
INSERT
8
INVENTAR
2
REOL
10
29000
20
7700
50
0
0
INSERT
8
INVENTAR
2
REOL
10
30000
20
7700
50
0
0
INSERT
8
INVENTAR
2
REOL
10
31000
20
7700
50
0
0
INSERT
8
INVENTAR
2
REOL
10
32000
20
7700
50
0
0
INSERT
8
INVENTAR
2
REOL
10
33000
20
7700
50
0
0
INSERT
8
INVENTAR
2
REOL
10
3000
20
10300
50
0
0
INSERT
8
INVENTAR
2
REOL
10
4000
20
10300
50
0
0
INSERT
8
INVENTAR
2
REOL
10
5000
20
10300
50
0
0
INSERT
8
INVENTAR
2
REOL
10
6000
20
10300
50
0
0
INSERT
8
INVENTAR
2
REOL
10
7000
20
10300
50
0
0
INSERT
8
INVENTAR
2
REOL
10
8000
20
10300
50
0
0
INSERT
8
INVENTAR
2
REOL
10
9000
20
10300
50
0
0
INSERT
8
INVENTAR
2
REOL
10
10000
20
10300
50
0
0
INSERT
8
INVENTAR
2
REOL
10
11000
20
10300
50
0
0
INSERT
8
INVENTAR
2
REOL
10
12000
20
10300
50
0
0
INSERT
8
INVENTAR
2
REOL
10
13000
20
10300
50
0
0
INSERT
8
INVENTAR
2
REOL
10
14000
20
10300
50
0
0
INSERT
8
INVENTAR
2
REOL
10
15000
20
10300
50
0
0
INSERT
8
INVENTAR
2
REOL
10
16000
20
10300
50
0
0
INSERT
8
INVENTAR
2
REOL
10
20000
20
10300
50
0
0
INSERT
8
INVENTAR
2
REOL
10
21000
20
10300
50
0
0
INSERT
8
INVENTAR
2
REOL
10
22000
20
10300
50
0
0
INSERT
8
INVENTAR
2
REOL
10
23000
20
10300
50
0
0
INSERT
8
INVENTAR
2
REOL
10
24000
20
10300
50
0
0
INSERT
8
INVENTAR
2
REOL
10
25000
20
10300
50
0
0
INSERT
8
INVENTAR
2
REOL
10
26000
20
10300
50
0
0
INSERT
8
INVENTAR
2
REOL
10
27000
20
10300
50
0
0
INSERT
8
INVENTAR
2
REOL
10
28000
20
10300
50
0
0
INSERT
8
INVENTAR
2
REOL
10
29000
20
10300
50
0
0
INSERT
8
INVENTAR
2
REOL
10
30000
20
10300
50
0
0
INSERT
8
INVENTAR
2
REOL
10
31000
20
10300
50
0
0
INSERT
8
INVENTAR
2
REOL
10
32000
20
10300
50
0
0
INSERT
8
INVENTAR
2
REOL
10
33000
20
10300
50
0
0
INSERT
8
INVENTAR
2
REOL
10
3000
20
12900
50
0
0
INSERT
8
INVENTAR
2
REOL
10
4000
20
12900
50
0
0
INSERT
8
INVENTAR
2
REOL
10
5000
20
12900
50
0
0
INSERT
8
INVENTAR
2
REOL
10
6000
20
12900
50
0
0
INSERT
8
INVENTAR
2
REOL
10
7000
20
12900
50
0
0
INSERT
8
INVENTAR
2
REOL
10
8000
20
12900
50
0
0
INSERT
8
INVENTAR
2
REOL
10
9000
20
12900
50
0
0
INSERT
8
INVENTAR
2
REOL
10
10000
20
12900
50
0
0
INSERT
8
INVENTAR
2
REOL
10
11000
20
12900
50
0
0
INSERT
8
INVENTAR
2
REOL
10
12000
20
12900
50
0
0
INSERT
8
INVENTAR
2
REOL
10
13000
20
12900
50
0
0
INSERT
8
INVENTAR
2
REOL
10
14000
20
12900
50
0
0
INSERT
8
INVENTAR
2
REOL
10
15000
20
12900
50
0
0
INSERT
8
INVENTAR
2
REOL
10
16000
20
12900
50
0
0
INSERT
8
INVENTAR
2
REOL
10
20000
20
12900
50
0
0
INSERT
8
INVENTAR
2
REOL
10
21000
20
12900
50
0
0
INSERT
8
INVENTAR
2
REOL
10
22000
20
12900
50
0
0
INSERT
8
INVENTAR
2
REOL
10
23000
20
12900
50
0
0
INSERT
8
INVENTAR
2
REOL
10
24000
20
12900
50
0
0
INSERT
8
INVENTAR
2
REOL
10
25000
20
12900
50
0
0
INSERT
8
INVENTAR
2
REOL
10
26000
20
12900
50
0
0
INSERT
8
INVENTAR
2
REOL
10
27000
20
12900
50
0
0
INSERT
8
INVENTAR
2
REOL
10
28000
20
12900
50
0
0
INSERT
8
INVENTAR
2
REOL
10
29000
20
12900
50
0
0
INSERT
8
INVENTAR
2
REOL
10
30000
20
12900
50
0
0
INSERT
8
INVENTAR
2
REOL
10
31000
20
12900
50
0
0
INSERT
8
INVENTAR
2
REOL
10
32000
20
12900
50
0
0
INSERT
8
INVENTAR
2
REOL
10
33000
20
12900
50
0
0
INSERT
8
INVENTAR
2
REOL
10
3000
20
15500
50
0
0
INSERT
8
INVENTAR
2
REOL
10
4000
20
15500
50
0
0
INSERT
8
INVENTAR
2
REOL
10
5000
20
15500
50
0
0
INSERT
8
INVENTAR
2
REOL
10
6000
20
15500
50
0
0
INSERT
8
INVENTAR
2
REOL
10
7000
20
15500
50
0
0
INSERT
8
INVENTAR
2
REOL
10
8000
20
15500
50
0
0
INSERT
8
INVENTAR
2
REOL
10
9000
20
15500
50
0
0
INSERT
8
INVENTAR
2
REOL
10
10000
20
15500
50
0
0
INSERT
8
INVENTAR
2
REOL
10
11000
20
15500
50
0
0
INSERT
8
INVENTAR
2
REOL
10
12000
20
15500
50
0
0
INSERT
8
INVENTAR
2
REOL
10
13000
20
15500
50
0
0
INSERT
8
INVENTAR
2
REOL
10
14000
20
15500
50
0
0
INSERT
8
INVENTAR
2
REOL
10
15000
20
15500
50
0
0
INSERT
8
INVENTAR
2
REOL
10
16000
20
15500
50
0
0
INSERT
8
INVENTAR
2
REOL
10
20000
20
15500
50
0
0
INSERT
8
INVENTAR
2
REOL
10
21000
20
15500
50
0
0
INSERT
8
INVENTAR
2
REOL
10
22000
20
15500
50
0
0
INSERT
8
INVENTAR
2
REOL
10
23000
20
15500
50
0
0
INSERT
8
INVENTAR
2
REOL
10
24000
20
15500
50
0
0
INSERT
8
INVENTAR
2
REOL
10
25000
20
15500
50
0
0
INSERT
8
INVENTAR
2
REOL
10
26000
20
15500
50
0
0
INSERT
8
INVENTAR
2
REOL
10
27000
20
15500
50
0
0
INSERT
8
INVENTAR
2
REOL
10
28000
20
15500
50
0
0
INSERT
8
INVENTAR
2
REOL
10
29000
20
15500
50
0
0
INSERT
8
INVENTAR
2
REOL
10
30000
20
15500
50
0
0
INSERT
8
INVENTAR
2
REOL
10
31000
20
15500
50
0
0
INSERT
8
INVENTAR
2
REOL
10
32000
20
15500
50
0
0
INSERT
8
INVENTAR
2
REOL
10
33000
20
15500
50
0
0
LWPOLYLINE
8
VAEGGE
90
4
70
1
10
0
20
0
10
40000
20
0
10
40000
20
20000
10
0
20
20000
0
TEXT
8
TEKST
10
4000
20
3350
40
350
1
6 Baby
50
0
0
TEXT
8
TEKST
10
11000
20
3350
40
350
1
6 Dyremad
50
0
0
TEXT
8
TEKST
10
4000
20
5950
40
350
1
8 Kaffe & The
50
0
0
TEXT
8
TEKST
10
11000
20
5950
40
350
1
4 Morgenmad
50
0
0
TEXT
8
TEKST
10
4000
20
8550
40
350
1
5 Konserves
50
0
0
TEXT
8
TEKST
10
11000
20
8550
40
350
1
7 Ris & pasta
50
0
0
TEXT
8
TEKST
10
4000
20
11150
40
350
1
9 Chips & snacks
50
0
0
TEXT
8
TEKST
10
11000
20
11150
40
350
1
3 Slik
50
0
0
TEXT
8
TEKST
10
4000
20
13750
40
350
1
4 Vin
50
0
0
TEXT
8
TEKST
10
11000
20
13750
40
350
1
8 Oel
50
0
0
TEXT
8
TEKST
10
4000
20
16350
40
350
1
7 Personlig pleje
50
0
0
TEXT
8
TEKST
10
11000
20
16350
40
350
1
5 Vask
50
0
0
LINE
8
KOEL
10
36000
20
2500
11
37200
21
2500
0
LINE
8
KOEL
10
37200
20
2500
11
37200
21
10500
0
LINE
8
KOEL
10
37200
20
10500
11
36000
21
10500
0
LINE
8
KOEL
10
36000
20
10500
11
36000
21
2500
0
TEXT
8
TEKST
10
36200
20
6500
40
300
1
8,0 m Drikkevare koel
50
0
0
LINE
8
KOEL
10
36000
20
11500
11
37200
21
11500
0
LINE
8
KOEL
10
37200
20
11500
11
37200
21
17500
0
LINE
8
KOEL
10
37200
20
17500
11
36000
21
17500
0
LINE
8
KOEL
10
36000
20
17500
11
36000
21
11500
0
TEXT
8
TEKST
10
36200
20
14500
40
300
1
6,0 m Mejeri koel
50
0
0
LWPOLYLINE
8
INVENTAR
90
4
70
1
10
24000
20
3000
10
27500
20
3000
10
27500
20
5000
10
24000
20
5000
0
TEXT
8
TEKST
10
25000
20
4000
40
400
1
FROST
50
0
0
LWPOLYLINE
8
INVENTAR
90
4
70
1
10
24000
20
7000
10
27500
20
7000
10
27500
20
9000
10
24000
20
9000
0
TEXT
8
TEKST
10
25000
20
8000
40
400
1
FROST
50
0
0
LWPOLYLINE
8
INVENTAR
90
4
70
1
10
5000
20
18500
10
7500
20
18500
10
7500
20
19400
10
5000
20
19400
0
TEXT
8
TEKST
10
5400
20
18950
40
300
1
Kasse 1
50
0
0
LWPOLYLINE
8
INVENTAR
90
4
70
1
10
9000
20
18500
10
11500
20
18500
10
11500
20
19400
10
9000
20
19400
0
TEXT
8
TEKST
10
9400
20
18950
40
300
1
Kasse 2
50
0
0
LWPOLYLINE
8
INVENTAR
90
4
70
1
10
13000
20
18500
10
15500
20
18500
10
15500
20
19400
10
13000
20
19400
0
TEXT
8
TEKST
10
13400
20
18950
40
300
1
Kasse 3
50
0
0
LINE
8
MAAL
10
0
20
-800
11
40000
21
-800
0
ENDSEC
0
EOF
